<svg id="Capa_1" enable-background="new 0 0 511.987 511.987" height="512" viewBox="0 0 511.987 511.987" width="512"
     xmlns="http://www.w3.org/2000/svg">
    <g fill='#f4ac31'>
        <path d="m118.698 355.628h33.334c8.36 0 14.617-7.651 12.978-15.836l-4.405-21.987 21.988 4.404c8.18 1.642 15.835-4.616 15.835-12.978v-33.334c0-8.37-7.666-14.62-15.835-12.978l-21.988 4.404 4.405-21.988c1.643-8.198-4.632-15.835-12.978-15.835h-33.334c-8.364 0-14.618 7.651-12.979 15.836l4.405 21.987-21.988-4.404c-8.197-1.639-15.835 4.628-15.835 12.978v33.334c0 8.376 7.67 14.616 15.835 12.978l21.988-4.404-4.405 21.988c-1.642 8.201 4.633 15.835 12.979 15.835zm26.414-53.316h-19.494v-19.494h19.494zm-24.262 38.316 4.672-23.316h19.687l4.672 23.316zm62.578-62.578v29.029l-23.315-4.67v-19.689zm-33.548-33.549-4.672 23.316h-19.687l-4.672-23.316zm-62.578 62.578v-29.029l23.316 4.671v19.688z"/>
        <path d="m312.988 291.533c0 15.731 12.799 28.529 28.53 28.529 4.478 0 8.716-1.04 12.49-2.886-1.846 3.775-2.886 8.014-2.886 12.491 0 15.731 12.799 28.529 28.53 28.529s28.529-12.798 28.529-28.529c0-4.478-1.04-8.716-2.886-12.492 3.775 1.846 8.014 2.886 12.492 2.886 15.731 0 28.53-12.798 28.53-28.529s-12.799-28.53-28.53-28.53c-4.478 0-8.717 1.04-12.492 2.886 1.846-3.775 2.886-8.014 2.886-12.492 0-15.731-12.798-28.529-28.529-28.529s-28.53 12.798-28.53 28.529c0 4.478 1.04 8.716 2.886 12.491-3.775-1.846-8.013-2.886-12.491-2.886-15.73.001-28.529 12.8-28.529 28.532zm66.665 51.664c-7.461 0-13.53-6.069-13.53-13.529 0-7.461 6.069-13.53 13.53-13.53 7.46 0 13.529 6.069 13.529 13.53.001 7.459-6.069 13.529-13.529 13.529zm-12.491-39.174c1.846-3.775 2.886-8.013 2.886-12.491s-1.04-8.717-2.886-12.492c3.775 1.846 8.014 2.886 12.492 2.886s8.717-1.04 12.492-2.886c-1.846 3.775-2.886 8.014-2.886 12.492s1.04 8.716 2.886 12.491c-3.775-1.846-8.013-2.886-12.491-2.886-4.479 0-8.718 1.04-12.493 2.886zm50.626-26.021c7.461 0 13.53 6.069 13.53 13.53 0 7.46-6.069 13.529-13.53 13.529-7.46 0-13.529-6.069-13.529-13.529s6.069-13.53 13.529-13.53zm-38.135-38.135c7.46 0 13.529 6.069 13.529 13.529 0 7.461-6.069 13.53-13.529 13.53-7.461 0-13.53-6.069-13.53-13.53 0-7.459 6.069-13.529 13.53-13.529zm-24.605 51.666c0 7.46-6.069 13.529-13.529 13.529-7.461 0-13.53-6.069-13.53-13.529 0-7.461 6.069-13.53 13.53-13.53 7.46-.001 13.529 6.069 13.529 13.53z"/>
        <path d="m159.206 379.904c0 15.247 12.405 27.652 27.652 27.652 15.248 0 27.653-12.405 27.653-27.652 0-15.248-12.405-27.653-27.653-27.653-15.247-.001-27.652 12.405-27.652 27.653zm40.306 0c0 6.977-5.676 12.652-12.653 12.652s-12.652-5.676-12.652-12.652c0-6.978 5.676-12.653 12.652-12.653 6.977-.001 12.653 5.675 12.653 12.653z"/>
        <path d="m296.913 379.904c0 15.247 12.405 27.652 27.652 27.652 15.248 0 27.653-12.405 27.653-27.652 0-15.248-12.405-27.653-27.653-27.653-15.247-.001-27.652 12.405-27.652 27.653zm27.653-12.654c6.978 0 12.653 5.676 12.653 12.653s-5.676 12.652-12.653 12.652-12.652-5.676-12.652-12.652c-.001-6.977 5.675-12.653 12.652-12.653z"/>
        <path d="m225.369 289.463c-4.143 0-7.5 3.357-7.5 7.5s3.357 7.5 7.5 7.5h10.955c4.143 0 7.5-3.357 7.5-7.5s-3.357-7.5-7.5-7.5z"/>
        <path d="m275.663 289.463c-4.143 0-7.5 3.357-7.5 7.5s3.357 7.5 7.5 7.5h10.955c4.143 0 7.5-3.357 7.5-7.5s-3.357-7.5-7.5-7.5z"/>
        <path d="m296.754 262.911c0-4.143-3.357-7.5-7.5-7.5h-66.521c-4.143 0-7.5 3.357-7.5 7.5s3.357 7.5 7.5 7.5h66.521c4.143 0 7.5-3.357 7.5-7.5z"/>
        <path d="m510.994 433.195-29.349-150.686-.048-.295c-.008-.049-.017-.099-.025-.147-3.732-23.535-15.54-45.359-33.264-61.47-17.482-15.893-39.969-25.507-63.481-27.177 0 0-.251-.183-43.909-.281v-72.207l38.644-21.265c3.26-1.792 5.284-5.217 5.284-8.937s-2.024-7.145-5.282-8.937l-54.931-30.228c-3.631-1.998-8.19-.673-10.188 2.955-1.996 3.629-.674 8.19 2.955 10.188l47.288 26.021c-12.574 6.919-48.589 26.737-61.778 33.995l-41.767-39.447c-3.011-2.844-7.759-2.71-10.602.303-2.845 3.011-2.709 7.758.303 10.602l38.263 36.139-33.15 18.241c-7.07-3.649-34.525-19.358-108.63-59.848l108.666-59.797 34.773 19.135c3.628 1.997 8.189.674 10.187-2.956 1.996-3.629.674-8.189-2.955-10.187l-37.083-20.405c-3.079-1.698-6.757-1.697-9.84-.003l-118.65 65.292c-3.26 1.792-5.284 5.217-5.284 8.937s2.024 7.145 5.306 8.948c14.622 7.981 27.407 14.984 38.623 21.145v72.315c-29.772.072-33.127.025-34.804.001-25.663-.396-50.489 8.555-69.973 25.14-19.212 16.352-31.948 38.998-35.879 63.785-.01.057-.02.113-.028.17l-.036.227-29.357 150.734c-3.059 15.703 1.022 31.791 11.196 44.138 18.943 22.987 52.55 25.758 75.029 7.314.277-.228.538-.475.78-.739l20.69-22.649c2.794-3.059 2.579-7.803-.479-10.596-3.058-2.795-7.802-2.58-10.596.479l-20.311 22.233c-16.291 13.003-40.135 10.685-53.539-5.581-7.314-8.876-10.248-20.441-8.05-31.731l29.371-150.801c.009-.043.022-.117.03-.16.011-.057.02-.112.029-.169l.027-.177c.012-.062.021-.123.031-.186 3.342-21.314 14.284-40.801 30.811-54.868 16.713-14.226 38.033-21.853 60.032-21.563 6.496.097 36.507.001 36.507.001 1.937 4.699 5.666 8.559 10.564 10.609 48.351 20.234 97.392 20.237 145.749 0 4.899-2.051 8.628-5.911 10.565-10.609 11.513.036 38.077-.107 42.938.155 42.35 2.343 77.85 34.421 84.411 76.275.011.069.022.138.035.205l.013.081c.018.124.038.246.062.368l29.379 150.838c2.198 11.289-.735 22.854-8.05 31.73-15.092 18.316-42.909 18.609-58.44.907l-40.125-45.728c-13.427-15.3-36.601-17.88-52.759-5.877-4.842 3.597-10.602 5.498-16.657 5.498-12.459 0-23.247-8.058-26.845-20.051-4.902-16.35-19.378-27.334-36.021-27.334h-2.746c-16.646 0-31.129 10.986-36.037 27.34-3.598 11.989-14.386 20.045-26.844 20.045-6.056 0-11.815-1.901-16.657-5.498-16.158-12.003-39.332-9.424-52.759 5.878-2.731 3.113-2.423 7.852.691 10.584 3.112 2.73 7.853 2.425 10.584-.691 8.311-9.472 22.604-11.11 32.538-3.729 7.448 5.532 16.301 8.457 25.603 8.457 19.133 0 35.694-12.351 41.211-30.733 2.989-9.96 11.697-16.651 21.67-16.651h2.746c9.967 0 18.669 6.688 21.654 16.644 5.516 18.387 22.077 30.741 41.212 30.741 9.302 0 18.154-2.925 25.603-8.457 9.933-7.383 24.228-5.743 32.539 3.729l40.124 45.727c21.601 24.618 60.293 24.223 81.292-1.261 10.178-12.347 14.259-28.434 11.2-44.137zm-187.917-228.285c-44.513 18.629-89.652 18.631-134.167 0-1.725-.722-2.84-2.384-2.84-4.235v-71.598c43.741 24.105 58.014 32.319 63.793 35.21 3.907 1.954 7.264 3.039 11.159.61l33.214-18.277v42.219c0 4.143 3.357 7.5 7.5 7.5s7.5-3.357 7.5-7.5v-50.473l16.682-9.18v71.488c0 1.852-1.115 3.515-2.841 4.236z"/>
    </g>
</svg>
