<?xml version="1.0" encoding="iso-8859-1"?>
<!-- Generator: Adobe Illustrator 19.0.0, SVG Export Plug-In . SVG Version: 6.00 Build 0)  -->
<svg version="1.1" id="Capa_1" xmlns="http://www.w3.org/2000/svg" xmlns:xlink="http://www.w3.org/1999/xlink" x="0px" y="0px"
	 viewBox="0 0 58 58" style="enable-background:new 0 0 58 58;" xml:space="preserve">
	<g fill='#f4ac31'>
		<path d="M17,19v20c0,0.6,0.4,1,1,1h22c0.6,0,1-0.4,1-1V19c0-0.6-0.4-1-1-1H18C17.4,18,17,18.4,17,19z M19,20h20v18H19V20z"/>
		<rect x="22" y="29" width="5" height="2"/>
		<rect x="22" y="33" width="12" height="2"/>
		<path d="M49,23c0.6,0,1-0.4,1-1v-3h8v-2h-8v-3c0-0.6-0.4-1-1-1h-3v-3c0-0.6-0.4-1-1-1h-3V0h-2v9h-3c-0.6,0-1,0.4-1,1v3h-2v-3
			c0-0.6-0.4-1-1-1h-3V0h-2v9h-3c-0.6,0-1,0.4-1,1v3h-2v-3c0-0.6-0.4-1-1-1h-3V0h-2v9h-3c-0.6,0-1,0.4-1,1v3H9c-0.6,0-1,0.4-1,1v3H0
			v2h8v3c0,0.6,0.4,1,1,1h3v1H9c-0.6,0-1,0.4-1,1v3H0v2h8v3c0,0.6,0.4,1,1,1h3v1H9c-0.6,0-1,0.4-1,1v3H0v2h8v3c0,0.6,0.4,1,1,1h3v3
			c0,0.6,0.4,1,1,1h3v9h2v-9h3c0.6,0,1-0.4,1-1v-3h2v3c0,0.6,0.4,1,1,1h3v9h2v-9h3c0.6,0,1-0.4,1-1v-3h2v3c0,0.6,0.4,1,1,1h3v9h2v-9
			h3c0.6,0,1-0.4,1-1v-3h3c0.6,0,1-0.4,1-1v-3h8v-2h-8v-3c0-0.6-0.4-1-1-1h-3v-1h3c0.6,0,1-0.4,1-1v-3h8v-2h-8v-3c0-0.6-0.4-1-1-1
			h-3v-1H49z M48,21h-2v-6h2V21z M44,22v3v8v3v7h-7h-4h-8h-4h-7v-7v-3v-8v-3v-7h7h4h8h4h7V22z M38,11h6v2h-6V11z M26,11h6v2h-6V11z
			 M14,11h6v2h-6V11z M10,21v-6h2v6H10z M10,32v-6h2v6H10z M10,37h2v6h-2V37z M20,47h-6v-2h6V47z M32,47h-6v-2h6V47z M44,47h-6v-2h6
			V47z M48,37v6h-2v-6H48z M48,26v6h-2v-6H48z"/>
	</g>
</svg>
