<svg id="Capa_1" enable-background="new 0 0 512 512" height="512" viewBox="0 0 512 512" width="512"
     xmlns="http://www.w3.org/2000/svg">
    <g fill='#fdbc4c'>
        <path d="m479.26 401.929h-57.34c-9.782 0-17.74-7.958-17.74-17.74v-2.52h65.851c10.746 0 19.489-8.743 19.489-19.49v-44.278c0-.032.005-.064.005-.096 0-.033-.004-.064-.005-.097v-228.449c0-10.747-8.743-19.49-19.489-19.49h-14.082v-34.781c0-7.891-5.31-14.837-12.913-16.893-11.511-3.112-22.671-5.629-33.168-7.481-4.073-.726-7.969 2.003-8.688 6.083s2.004 7.97 6.083 8.689c10.059 1.775 20.777 4.194 31.859 7.19 1.076.291 1.827 1.283 1.827 2.412v253.732h-188.686v-219.384c32.294-34.233 72.028-49.854 121.373-47.749 4.142.181 7.638-3.035 7.813-7.173.177-4.138-3.035-7.636-7.173-7.813-52.237-2.228-94.695 13.795-129.506 48.925-25.23-25.494-54.129-40.746-88.117-46.534-31.579-5.377-67.614-2.4-110.164 9.104-7.603 2.056-12.912 9.002-12.912 16.893v34.781h-14.087c-10.747-.001-19.49 8.742-19.49 19.489v74.7c0 4.142 3.357 7.5 7.5 7.5s7.5-3.358 7.5-7.5v-74.7c0-2.476 2.015-4.49 4.49-4.49h14.087v207.451c0 6.341 5.159 11.5 11.5 11.5h399.371c6.341 0 11.5-5.159 11.5-11.5v-207.451h14.082c2.476 0 4.489 2.014 4.489 4.49v228.595c-.027 2.454-2.026 4.443-4.486 4.443h-450.542c-2.477 0-4.491-2.015-4.491-4.492v-118.846c0-4.142-3.357-7.5-7.5-7.5s-7.5 3.358-7.5 7.5v163.22c0 10.747 8.743 19.49 19.49 19.49h171.12l-17.631 41.63h-20.779c-14.276 0-25.891 11.614-25.891 25.89v12.71c0 6.534 5.316 11.85 11.851 11.85h101.594c3.309 18.093 19.179 31.854 38.213 31.854h60.832c21.2 0 38.478-17.068 38.84-38.184h101.621c18.053 0 32.74-14.691 32.74-32.75 0-18.053-14.687-32.74-32.74-32.74zm-430.683-324.602c0-.02.003-.038.003-.058s-.003-.038-.003-.058v-42.223c0-1.129.751-2.122 1.826-2.412 40.408-10.925 74.342-13.801 103.732-8.797 32.187 5.481 59.407 20.397 83.127 45.561v219.38h-188.685zm-33.577 284.852v-25.425c1.445.343 2.943.543 4.491.543h450.542c1.546 0 3.043-.2 4.486-.542v25.424c0 2.476-2.014 4.49-4.489 4.49h-450.54c-2.475 0-4.49-2.014-4.49-4.49zm191.9 19.49h75.723l13.795 32.56h-18.451c-9.476 0-18.166 3.414-24.917 9.07h-63.78zm-65.59 67.52c0-6.005 4.886-10.89 10.891-10.89h89.84c-1.885 4.561-2.931 9.554-2.931 14.788v5.663h-97.8zm221.346 17.556c0 13.155-10.702 23.857-23.857 23.857h-60.832c-13.155 0-23.857-10.702-23.857-23.857v-13.659c0-13.155 10.702-23.857 23.857-23.857h60.832c13.155 0 23.857 10.702 23.857 23.857zm116.604-14.326h-101.62c-.359-21.118-17.639-38.19-38.841-38.19h-26.091l-13.795-32.56h90.267v2.52c0 18.053 14.688 32.74 32.74 32.74h57.34c9.782 0 17.74 7.958 17.74 17.74 0 9.788-7.958 17.75-17.74 17.75z"/>
        <path d="m339.579 452.416h-9.354c-4.143 0-7.5 3.358-7.5 7.5s3.357 7.5 7.5 7.5h9.354c4.143 0 7.5-3.358 7.5-7.5s-3.357-7.5-7.5-7.5z"/>
        <path d="m123.893 140.626 3.194 11.31c.934 3.305 3.941 5.463 7.214 5.463.675 0 1.361-.092 2.042-.284 3.986-1.126 6.306-5.27 5.18-9.256l-18.937-67.051c-1.049-3.723-4.482-6.323-8.35-6.323h-2.725c-3.861 0-7.293 2.595-8.349 6.317l-18.938 67.057c-1.126 3.986 1.193 8.13 5.18 9.256 3.982 1.126 8.13-1.193 9.256-5.179l3.194-11.31zm-11.02-39.018 6.783 24.017h-13.566z"/>
        <path d="m194.396 184.714h-17.713l24.257-43.321c1.301-2.322 1.272-5.16-.073-7.457-1.347-2.296-3.809-3.708-6.471-3.708h-30.508c-4.143 0-7.5 3.358-7.5 7.5s3.357 7.5 7.5 7.5h17.713l-24.257 43.321c-1.301 2.322-1.272 5.16.073 7.457 1.347 2.296 3.809 3.708 6.471 3.708h30.508c4.143 0 7.5-3.358 7.5-7.5s-3.357-7.5-7.5-7.5z"/>
        <path d="m169.495 248.436h-53.151c-4.143 0-7.5 3.358-7.5 7.5s3.357 7.5 7.5 7.5h53.151c4.143 0 7.5-3.358 7.5-7.5s-3.357-7.5-7.5-7.5z"/>
        <path d="m320.029 248.436c-4.143 0-7.5 3.358-7.5 7.5s3.357 7.5 7.5 7.5h53.151c4.143 0 7.5-3.358 7.5-7.5s-3.357-7.5-7.5-7.5z"/>
        <path d="m385.523 132.944c-3.964-1.569-8.426-.561-11.369 2.572l-29.462 31.388c-2.938 3.131-3.729 7.718-2.011 11.686 1.673 3.863 5.435 6.36 9.584 6.36h29.463c5.776 0 10.477-4.787 10.477-10.671v-31.388c0-4.436-2.623-8.34-6.682-9.947zm-8.318 37.006h-14.799l14.799-15.767z"/>
        <path d="m421.113 205.007v-135.809c0-4.466-2.641-8.397-6.728-10.014-3.988-1.578-8.478-.562-11.435 2.589l-127.467 135.809c-2.96 3.152-3.755 7.771-2.025 11.766 1.684 3.888 5.469 6.401 9.645 6.401h127.469c5.812 0 10.541-4.819 10.541-10.742zm-15-4.258h-113.03l12.015-12.801 1.215 1.294c1.477 1.573 3.471 2.367 5.471 2.367 1.839 0 3.684-.673 5.131-2.031 3.021-2.835 3.171-7.581.336-10.602l-1.866-1.988 16.489-17.568 1.216 1.295c1.477 1.573 3.471 2.367 5.471 2.367 1.839 0 3.684-.673 5.131-2.031 3.021-2.835 3.171-7.581.336-10.602l-1.867-1.989 16.489-17.568 1.216 1.296c1.477 1.573 3.471 2.367 5.471 2.367 1.839 0 3.684-.673 5.131-2.031 3.021-2.835 3.171-7.581.336-10.602l-1.868-1.99 16.49-17.568 1.217 1.297c1.477 1.573 3.471 2.367 5.471 2.367 1.839 0 3.684-.673 5.131-2.031 3.021-2.835 3.171-7.581.336-10.602l-1.868-1.991 10.402-11.083v120.428z"/>
    </g>
</svg>
