<?xml version="1.0" encoding="iso-8859-1"?>
<!-- Generator: Adobe Illustrator 19.0.0, SVG Export Plug-In . SVG Version: 6.00 Build 0)  -->
<svg version="1.1" id="Capa_1" xmlns="http://www.w3.org/2000/svg" xmlns:xlink="http://www.w3.org/1999/xlink" x="0px" y="0px"
	 viewBox="0 0 512 512" style="enable-background:new 0 0 512 512;" xml:space="preserve" fill='#f4ac31'>
<g>
	<g>
		<path d="M467,422h-47.508c-6.97-34.191-37.274-60-73.493-60h-15v-30h60v-81.213l-60-60v-80.983
			c0-46.03-27.006-88.027-68.801-106.992L256,0l-6.198,2.813c-41.795,18.965-68.801,60.962-68.801,106.992v80.984l-60,59.999V332h60
			v30h-14.999c-36.219,0-66.524,25.809-73.494,60H45c-24.813,0-45,20.187-45,45s20.187,45,45,45h422c24.813,0,45-20.187,45-45
			S491.814,422,467,422z M330.999,233.213l30,30.001V302h-30V233.213z M211,109.804c0.001-31.951,17.454-61.286,45-76.554
			c27.546,15.269,44.999,44.604,44.999,76.555V122H211V109.804z M301,212v90h-89.999v-90H301z M211,152h89.999v30H211V152z
			 M151.001,302v-38.787l30-30V302H151.001z M467,482H45c-8.271,0-15-6.729-15-15s6.729-15,15-15h76.001v-15
			c0-24.813,20.187-45,45-45H181v60h30V332h30v120h30V332h29.999v120h30v-60h15c24.813,0,45,20.187,45,45v15H467
			c8.271,0,15,6.729,15,15S475.272,482,467,482z"/>
	</g>
</g>
<g>
</g>
<g>
</g>
<g>
</g>
<g>
</g>
<g>
</g>
<g>
</g>
<g>
</g>
<g>
</g>
<g>
</g>
<g>
</g>
<g>
</g>
<g>
</g>
<g>
</g>
<g>
</g>
<g>
</g>
</svg>
